<svg width="1194" height="986" viewBox="0 0 1194 986" fill="none" xmlns="http://www.w3.org/2000/svg">
<path d="M1218.61 1362.42L1215.68 1361.81C1227.68 1307.25 1217.76 1250.78 1206.56 1197.59C1177.55 1059.58 1136.89 924.248 1085.03 793.043C947.38 917.329 793.033 1001.56 632.864 1039.02C412.559 1090.58 182.193 1046.68 16.7598 921.64C-44.2539 875.59 -89.1806 824.093 -116.792 768.635C-154.406 692.904 -164.322 600.949 -144.666 509.403C-127.409 429.07 -86.9284 348.155 -27.6696 275.453C13.4254 225.121 54.462 189.994 97.78 168.178C147.942 142.925 210.097 131.507 282.488 134.245C396.297 138.555 518.939 175.023 657.433 245.365C721.05 277.754 802.422 323.688 867.238 391.991C925.18 453.158 967.007 529.326 1000.26 595.881C1031.62 658.66 1060.27 722.74 1086.23 788.121C1116.92 760.256 1146.7 730.4 1175.58 698.555C1305.89 555.074 1417.74 372.33 1517.56 139.633L1520.25 140.769C1420.28 373.787 1308.26 556.764 1177.78 700.535C1148.53 732.672 1118.4 762.829 1087.4 791.004C1139.52 922.687 1180.36 1058.53 1209.48 1197.07C1220.74 1250.49 1230.6 1307.31 1218.61 1362.42ZM261.722 136.75C198.602 136.75 143.994 148.167 99.0962 170.77C56.1585 192.412 15.4144 227.277 -25.4467 277.405C-84.4715 349.757 -124.718 430.235 -141.888 510.131C-161.426 600.979 -151.598 692.351 -114.247 767.382C-86.8407 822.607 -42.2065 873.58 18.427 919.368C183.275 1043.97 412.735 1087.66 632.25 1036.2C792.243 998.768 946.474 914.503 1083.92 790.16C1057.9 724.623 1029.14 660.301 997.63 597.192C964.433 530.84 922.811 454.789 864.986 393.972C800.491 325.989 719.412 280.376 655.971 247.957C517.856 177.702 395.653 141.439 282.254 137.274C275.41 136.895 268.507 136.75 261.722 136.75Z" fill="#7BDAC8"/>
<path d="M653.719 1390.82C568.458 1355.87 494.34 1278.45 450.408 1178.19C414.987 1097.45 396.648 1000.08 394.25 880.512C391.325 737.556 416.362 664.971 435.374 622.62C466.671 553.093 521.279 489.13 597.678 432.478C657.843 387.884 724.882 352.232 789.728 317.746L812.659 305.541C905.935 255.792 1004.09 200.247 1091.49 131.477C1201.06 45.2608 1267.34 -43.8393 1294.1 -140.978C1297.46 -153.154 1300.8 -170.892 1292.02 -182.601L1294.33 -184.378C1304.1 -171.649 1300.51 -153.066 1296.97 -140.192C1270.06 -42.4703 1203.37 47.1541 1093.36 133.778C1005.79 202.664 907.368 258.297 814.092 308.134L791.161 320.367C726.403 354.795 659.54 390.272 599.491 434.837C523.443 491.198 469.186 554.783 438.094 623.843C419.199 665.845 394.425 738.138 397.145 880.483C399.515 999.642 417.795 1096.66 453.041 1177.06C496.68 1276.58 570.213 1353.54 654.86 1388.11L653.719 1390.82Z" fill="#7BDAC8"/>
</svg>
